<?xml version="1.0" encoding="iso-8859-1"?>
<!-- Uploaded to: SVG Repo, www.svgrepo.com, Generator: SVG Repo Mixer Tools -->
<svg version="1.1" id="Layer_1" xmlns="http://www.w3.org/2000/svg" xmlns:xlink="http://www.w3.org/1999/xlink" 
	 viewBox="0 0 512 512" xml:space="preserve">
<g>
	<path style="fill:#566955;" d="M328.911,512c-44.708,0-81.081-36.643-81.081-81.681h16.34c0,36.03,29.042,65.341,64.741,65.341
		s64.74-29.042,64.74-64.741v-33.282h16.34v33.282C409.991,475.627,373.618,512,328.911,512z"/>
	<path style="fill:#566955;" d="M118.349,125.254h-16.34V81.081C102.009,36.373,138.382,0,183.089,0s81.081,36.641,81.081,81.679
		h-16.34c0-36.028-29.042-65.339-64.741-65.339s-64.74,29.042-64.74,64.741C118.349,81.081,118.349,125.254,118.349,125.254z"/>
</g>
<rect x="386.723" y="321.383" style="fill:#FFD691;" width="30.197" height="76.252"/>
<path style="fill:#FEC76B;" d="M413.805,77.369v31.591h-23.966V77.369c0-6.623,5.36-11.983,11.983-11.983
	C408.434,65.386,413.805,70.745,413.805,77.369z"/>
<rect x="385.482" y="98.064" style="fill:#FFD691;" width="32.681" height="81.702"/>
<g>
	<path style="fill:#566955;" d="M324.085,174.317h-16.34v-32.724c0-28.531-23.213-51.745-51.745-51.745
		s-51.745,23.213-51.745,51.745v32.724h-16.34v-32.724c0-37.542,30.544-68.085,68.085-68.085s68.085,30.544,68.085,68.085V174.317z"
		/>
	<path style="fill:#566955;" d="M256,438.489c-37.542,0-68.085-30.544-68.085-68.085v-32.681h16.34v32.681
		c0,28.531,23.213,51.745,51.745,51.745s51.745-23.213,51.745-51.745v-32.681h16.34v32.681
		C324.085,407.945,293.542,438.489,256,438.489z"/>
	<path style="fill:#566955;" d="M256,405.808c-19.521,0-35.404-15.883-35.404-35.404v-32.681h16.34v32.681
		c0,10.511,8.553,19.064,19.064,19.064s19.064-8.553,19.064-19.064v-32.681h16.34v32.681
		C291.404,389.925,275.521,405.808,256,405.808z"/>
	<path style="fill:#566955;" d="M291.404,174.317h-16.34v-32.724c0-10.511-8.553-19.064-19.064-19.064s-19.064,8.553-19.064,19.064
		v32.724h-16.34v-32.724c0-19.521,15.883-35.404,35.404-35.404c19.521,0,35.404,15.883,35.404,35.404V174.317z"/>
</g>
<path style="fill:#FEC76B;" d="M370.383,168.875v147.064c0,8.987,7.353,16.34,16.34,16.34h30.197c8.987,0,16.34-7.353,16.34-16.34
	V168.875H370.383z"/>
<g>
	<path style="fill:#FAB43E;" d="M433.261,291.425h-30.199c-4.512,0-8.17,3.658-8.17,8.17c0,4.512,3.658,8.17,8.17,8.17h30.199
		L433.261,291.425L433.261,291.425z"/>
	<path style="fill:#FAB43E;" d="M433.261,258.744h-30.199c-4.512,0-8.17,3.658-8.17,8.17s3.658,8.17,8.17,8.17h30.199
		L433.261,258.744L433.261,258.744z"/>
</g>
<g>
	<rect x="93.838" y="266.872" style="fill:#FFD691;" width="32.678" height="59.915"/>
	<rect x="95.079" y="114.361" style="fill:#FFD691;" width="30.197" height="76.255"/>
</g>
<polygon style="fill:#FEC76B;" points="141.617,212.402 141.617,277.763 78.739,277.763 78.739,212.402 108.527,212.402 "/>
<g>
	<path style="fill:#FAB43E;" d="M125.277,179.721c8.987,0,16.34,7.353,16.34,16.34v16.34H78.739v-16.34
		c0-8.987,7.353-16.34,16.34-16.34H125.277z"/>
	<path style="fill:#FAB43E;" d="M141.617,236.915h-30.195c-4.512,0-8.17,3.658-8.17,8.17s3.658,8.17,8.17,8.17h30.195V236.915z"/>
</g>
<g>
	<path style="fill:#566955;" d="M326.809,313.212H185.191c-4.512,0-8.17-3.658-8.17-8.17c0-4.512,3.658-8.17,8.17-8.17h141.617
		c4.512,0,8.17,3.658,8.17,8.17C334.979,309.554,331.321,313.212,326.809,313.212z"/>
	<path style="fill:#566955;" d="M326.809,345.893H185.191c-4.512,0-8.17-3.658-8.17-8.17c0-4.512,3.658-8.17,8.17-8.17h141.617
		c4.512,0,8.17,3.658,8.17,8.17C334.979,342.235,331.321,345.893,326.809,345.893z"/>
	<path style="fill:#566955;" d="M326.809,247.85H185.191c-4.512,0-8.17-3.658-8.17-8.17c0-4.512,3.658-8.17,8.17-8.17h141.617
		c4.512,0,8.17,3.658,8.17,8.17C334.979,244.192,331.321,247.85,326.809,247.85z"/>
	<path style="fill:#566955;" d="M326.809,280.531H185.191c-4.512,0-8.17-3.658-8.17-8.17c0-4.512,3.658-8.17,8.17-8.17h141.617
		c4.512,0,8.17,3.658,8.17,8.17C334.979,276.873,331.321,280.531,326.809,280.531z"/>
	<path style="fill:#566955;" d="M326.809,215.17H185.191c-4.512,0-8.17-3.658-8.17-8.17c0-4.512,3.658-8.17,8.17-8.17h141.617
		c4.512,0,8.17,3.658,8.17,8.17C334.979,211.512,331.321,215.17,326.809,215.17z"/>
	<path style="fill:#566955;" d="M326.809,182.489H185.191c-4.512,0-8.17-3.658-8.17-8.17s3.658-8.17,8.17-8.17h141.617
		c4.512,0,8.17,3.658,8.17,8.17S331.321,182.489,326.809,182.489z"/>
</g>
</svg>